<?xml version="1.0" encoding="utf-8"?>
<!-- Generator: Adobe Illustrator 21.0.2, SVG Export Plug-In . SVG Version: 6.00 Build 0)  -->
<svg version="1.2" baseProfile="tiny" id="Calque_1"
	 xmlns="http://www.w3.org/2000/svg" xmlns:xlink="http://www.w3.org/1999/xlink" x="0px" y="0px" viewBox="0 0 200 200"
	 xml:space="preserve">
<g>
	<path fill="#99A7C4" d="M100,57c-23.2,0-42,18.8-42,42c0,23.2,18.8,42,42,42c23.2,0,42-18.8,42-42C142,75.8,123.2,57,100,57z
		 M111.8,93.2l-22.3,26.5c-0.1,0.2-0.3,0.2-0.5,0.2c-0.1,0-0.3,0-0.4-0.1c-0.3-0.2-0.4-0.5-0.3-0.9l7.8-18.6H89
		c-0.2,0-0.5-0.1-0.6-0.3c-0.1-0.2-0.1-0.5,0-0.7l10.5-20.9c0.1-0.2,0.4-0.4,0.6-0.4h11.2c0.3,0,0.5,0.1,0.6,0.4
		c0.1,0.2,0.1,0.5,0,0.7L103,92.1h8.3c0.3,0,0.5,0.2,0.6,0.4C112,92.7,112,93,111.8,93.2z"/>
</g>
</svg>
