<?xml version="1.0" encoding="utf-8"?>
<!-- Generator: Adobe Illustrator 21.0.2, SVG Export Plug-In . SVG Version: 6.00 Build 0)  -->
<svg version="1.2" baseProfile="tiny" id="Calque_1"
	 xmlns="http://www.w3.org/2000/svg" xmlns:xlink="http://www.w3.org/1999/xlink" x="0px" y="0px" viewBox="0 0 15 15"
	 xml:space="preserve">
<g>
	<path fill="#3C3C3B" d="M10.9,1.5C9.9,0.9,8.7,0.6,7.4,0.6c-0.2,0-0.5,0-0.7,0c-0.2,0-0.4,0-0.6,0.1c0,0,0,0,0,0c0,0,0,0,0,0
		c0,0,0,0,0,0c0.8,0.1,1.5,0.4,2.2,0.8c1,0.6,1.9,1.4,2.5,2.5c0.6,1,0.9,2.3,0.9,3.6c0,1.3-0.3,2.5-0.9,3.6c-0.6,1-1.4,1.9-2.4,2.5
		c-0.6,0.3-1.2,0.6-1.9,0.7c0,0,0,0,0,0c0,0,0,0,0,0l0,0c0.2,0.1,0.5,0.1,0.7,0.1c0,0,0,0,0,0c0.2,0,0.5,0,0.8,0
		c1.2,0,2.3-0.3,3.3-0.9c1-0.6,1.8-1.4,2.3-2.5c0.6-1.1,0.8-2.2,0.8-3.5C14.3,6.2,14,5,13.4,4C12.8,2.9,12,2.1,10.9,1.5z"/>
	<path fill="#98A6C3" d="M2.7,3.7C2.1,4.1,1.6,4.6,1.2,5.3C0.9,5.9,0.7,6.7,0.7,7.5c0,0.8,0.2,1.6,0.5,2.2c0.3,0.6,0.8,1.2,1.5,1.5
		c0.6,0.4,1.3,0.5,2.1,0.5c0.5,0,0.9-0.1,1.3-0.2c-0.1,0-0.3-0.1-0.4-0.1c-0.1-0.1-0.3-0.1-0.4-0.2c-0.6-0.4-1.1-0.9-1.5-1.5
		C3.5,9.1,3.3,8.3,3.3,7.5c0-0.8,0.2-1.6,0.5-2.2c0.3-0.7,0.8-1.2,1.5-1.5c0.1-0.1,0.3-0.1,0.4-0.2C5.8,3.5,6,3.4,6.1,3.4h0
		C5.7,3.3,5.2,3.2,4.8,3.2C4,3.2,3.3,3.4,2.7,3.7z"/>
</g>
</svg>
