<?xml version="1.0" encoding="utf-8"?>
<!-- Generator: Adobe Illustrator 21.0.2, SVG Export Plug-In . SVG Version: 6.00 Build 0)  -->
<svg version="1.2" baseProfile="tiny" id="Calque_1"
	 xmlns="http://www.w3.org/2000/svg" xmlns:xlink="http://www.w3.org/1999/xlink" x="0px" y="0px" viewBox="0 0 200 200"
	 xml:space="preserve">
<g>
	<path fill="#99A7C4" d="M100,79c-11.5,0-20.9,9.4-20.9,20.9c0,11.5,9.4,20.9,20.9,20.9s20.9-9.4,20.9-20.9
		C120.9,88.4,111.5,79,100,79L100,79z M88.4,111.5l5.9-14.1l8.2,8.2L88.4,111.5z M105.6,102.4l-8.2-8.2l14.1-5.9L105.6,102.4z
		 M105.6,102.4"/>
	<path fill="#99A7C4" d="M100,58c-23.2,0-42,18.8-42,42c0,23.2,18.8,42,42,42c23.2,0,42-18.8,42-42C142,76.8,123.2,58,100,58L100,58
		z M100,125.2c-13.9,0-25.3-11.3-25.3-25.3c0-13.9,11.3-25.3,25.3-25.3c13.9,0,25.3,11.3,25.3,25.3
		C125.3,113.8,113.9,125.2,100,125.2L100,125.2z M100,125.2"/>
</g>
</svg>
