<?xml version="1.0" encoding="utf-8"?>
<!-- Generator: Adobe Illustrator 21.0.2, SVG Export Plug-In . SVG Version: 6.00 Build 0)  -->
<svg version="1.2" baseProfile="tiny" id="Calque_1"
	 xmlns="http://www.w3.org/2000/svg" xmlns:xlink="http://www.w3.org/1999/xlink" x="0px" y="0px" viewBox="0 0 200 200"
	 xml:space="preserve">
<g>
	<path fill="#99A7C4" d="M100,58c-23.2,0-42,18.8-42,42c0,23.2,18.8,42,42,42c23.2,0,42-18.8,42-42C142,76.8,123.2,58,100,58z
		 M90.6,93.2c0-3.5,2.2-4,3.6-4h27.6c1.3,0,3.6,0.5,3.6,4v5.3H90.6V93.2z M83.6,89c2.7,0,4.9,2.2,4.9,4.9s-2.2,4.9-4.9,4.9
		s-4.9-2.2-4.9-4.9S80.9,89,83.6,89z M126.6,119h-3.5v-9.3H76.8v9.3h-3.5V83.1h3.5v18.5h5.2h44.6V119z"/>
</g>
</svg>
